Neil Young Crazy Horse Americana m2ts 1080p PCM 192kHz Stereo PCM 96kHz Stereo


Track listing:

1. Oh Susannah
2. Clementine
3. Tom Dula
4. Gallows Pole
5. Get A Job
6. Travel On
7. High Flyin' Bird
8. Jesus' Chariot
9. This Land Is Your Land
10. Wayfarin' Stranger
11. God Save The Queen 



General 
ID : 0 (0x0) 
Neil Young Crazy Horse Americana.m2ts 
Format : BDAV 
Format/Info : Blu-ray Video 
File size : 9.62 GiB 
Duration : 56mn 3s 
Overall bit rate mode : Variable 
Overall bit rate : 24.6 Mbps 
Maximum Overall bit rate : 48.0 Mbps 

Video 
ID : 4113 (0x1011) 
Menu ID : 1 (0x1) 
Format : AVC 
Format/Info : Advanced Video Codec 
Format profile : High@L4.1 
Format settings, CABAC : Yes 
Format settings, ReFrames : 2 frames 
Codec ID : 27 
Duration : 56mn 2s 
Bit rate mode : Variable 
Bit rate : 9 770 Kbps 
Maximum bit rate : 30.0 Mbps 
Width : 1 920 pixels 
Height : 1 080 pixels 
Display aspect ratio : 16:9 
Frame rate : 29.970 fps 
Color space : YUV 
Chroma subsampling : 4:2:0 
Bit depth : 8 bits 
Scan type : Progressive 
Bits/(Pixel*Frame) : 0.157 
Stream size : 3.82 GiB (40%) 
Writing library : x264 core 
Color primaries : BT.709 
Transfer characteristics : BT.709 
Matrix coefficients : BT.709 

Audio #1 
ID : 4352 (0x1100) 
Menu ID : 1 (0x1) 
Format : PCM 
Format settings, Endianness : Big 
Format settings, Sign : Signed 
Muxing mode : Blu-ray 
Codec ID : 128 
Duration : 56mn 2s 
Bit rate mode : Constant 
Bit rate : 4 608 Kbps 
Channel(s) : 2 channels 
Channel positions : Front: L R 
Sampling rate : 96.0 KHz 
Bit depth : 24 bits 
Stream size : 1.80 GiB (19%) 

Audio #2 
ID : 4353 (0x1101) 
Menu ID : 1 (0x1) 
Format : PCM 
Format settings, Endianness : Big 
Format settings, Sign : Signed 
Muxing mode : Blu-ray 
Codec ID : 128 
Duration : 56mn 2s 
Bit rate mode : Constant 
Bit rate : 9 216 Kbps 
Channel(s) : 2 channels 
Channel positions : Front: L R 
Sampling rate : 192 KHz 
Bit depth : 24 bits 
Stream size : 3.61 GiB (37%) 












